# xmcd CD database file
#
# Track frame offsets:
#	150
#	19178
#	36215
#	55067
#	70776
#	85632
#	103365
#	119899
#	133274
#	147472
#	181797
#
# Disc length: 4269 seconds
#
# Revision: 1
# Processed by: cddbd v1.5.2PL0 Copyright (c) Steve Scherf et al.
# Submitted via: CDex 1.51
#
DISCID=a110ab0b
DTITLE=Duffy - Rockferry
DYEAR=2008
DGENRE=Jazz
TTITLE0=Rockferry
TTITLE1=Warwick Avenue
TTITLE2=Serious
TTITLE3=Stepping Stone
TTITLE4=Syrup and Honey
TTITLE5=Hanging On Too Long
TTITLE6=Mercy
TTITLE7=Delayed Devotion
TTITLE8=I'm Scared
TTITLE9=Distant Dreamer
TTITLE10=Data
EXTD=YEAR: 2008
EXTT0=
EXTT1=
EXTT2=
EXTT3=
EXTT4=
EXTT5=
EXTT6=
EXTT7=
EXTT8=
EXTT9=
EXTT10=
PLAYORDER=
